<svg width="66" height="38" viewBox="0 0 66 38" fill="none" xmlns="http://www.w3.org/2000/svg">
<path d="M63.25 0.670288H2.75C1.23122 0.670288 0 1.9015 0 3.42029C0 4.93907 1.23122 6.17029 2.75 6.17029H63.25C64.7688 6.17029 66 4.93907 66 3.42029C66 1.9015 64.7688 0.670288 63.25 0.670288Z" fill="white"/>
<path d="M52.25 16.2537H2.75C1.23122 16.2537 0 17.4849 0 19.0037C0 20.5224 1.23122 21.7537 2.75 21.7537H52.25C53.7688 21.7537 55 20.5224 55 19.0037C55 17.4849 53.7688 16.2537 52.25 16.2537Z" fill="white"/>
<path d="M63.25 31.8297H2.75C1.23122 31.8297 0 33.0609 0 34.5797C0 36.0985 1.23122 37.3297 2.75 37.3297H63.25C64.7688 37.3297 66 36.0985 66 34.5797C66 33.0609 64.7688 31.8297 63.25 31.8297Z" fill="white"/>
</svg>
