<svg width="35" height="35" viewBox="0 0 35 35" fill="none" xmlns="http://www.w3.org/2000/svg">
<path d="M23.4955 11.5749L23.4955 11.5749L23.4931 11.5724C22.5664 10.5849 21.4659 9.91246 20.4452 9.91246C20.0985 9.91246 19.8223 9.63014 19.8223 9.28954C19.8223 8.95319 20.1088 8.66663 20.4452 8.66663C21.7222 8.66663 23.1309 9.36045 24.4133 10.7124C25.6218 11.9913 26.3327 13.5219 26.3327 14.5395C26.3327 14.8905 26.0461 15.177 25.6952 15.177C25.3485 15.177 25.0723 14.8947 25.0723 14.5541C25.0723 14.1591 24.8896 13.6544 24.6318 13.1652C24.3635 12.6563 23.9772 12.0955 23.4955 11.5749Z" fill="url(#paint0_linear_1_498)" stroke="white"/>
<path d="M30.9608 15.177C30.6141 15.177 30.3379 14.8947 30.3379 14.5541C30.3379 9.10039 25.8989 4.67704 20.4608 4.67704C20.1141 4.67704 19.8379 4.39472 19.8379 4.05413C19.8379 3.70079 20.1265 3.41663 20.4462 3.41663C26.5867 3.41663 31.5837 8.4136 31.5837 14.5541C31.5837 14.8905 31.2972 15.177 30.9608 15.177Z" fill="url(#paint1_linear_1_498)" stroke="white"/>
<path d="M3.90525 6.90857L3.90526 6.90857L3.9063 6.90594C4.22772 6.08899 4.73845 5.333 5.46121 4.65116L5.46129 4.65124L5.46886 4.64379C6.32672 3.79933 7.22685 3.41663 8.15143 3.41663C8.48975 3.41663 8.82353 3.48935 9.11632 3.62989L9.11629 3.62994L9.12315 3.63311C9.42804 3.77382 9.69114 3.98063 9.89867 4.2804L9.89864 4.28042L9.90197 4.28511L13.2853 9.05386L13.2853 9.05387L13.2873 9.0567C13.5317 9.39612 13.7002 9.69724 13.8137 9.97469L13.8136 9.97472L13.8169 9.98234C13.9286 10.2431 13.9806 10.4817 13.9806 10.675C13.9806 10.9243 13.9086 11.1853 13.7473 11.4504L13.743 11.4573L13.7391 11.4643C13.5774 11.7504 13.3315 12.0649 13.0041 12.3922L13.0041 12.3922L12.9974 12.3991L11.892 13.5481C11.6327 13.8093 11.516 14.1283 11.516 14.4812C11.516 14.6452 11.5373 14.7884 11.5747 14.9379L11.5816 14.9655L11.5916 14.9922C11.6155 15.056 11.6395 15.1126 11.6579 15.156C11.6597 15.1602 11.6614 15.1643 11.6631 15.1682C11.6837 15.2169 11.6945 15.2438 11.7021 15.2664L11.7162 15.3086L11.7375 15.3477C12.0236 15.8723 12.5005 16.5291 13.151 17.2979L13.151 17.298L13.1546 17.3021C13.8159 18.0664 14.5231 18.8473 15.2904 19.6293L15.2903 19.6293L15.2937 19.6327C15.371 19.7099 15.4513 19.7864 15.5264 19.858L15.5285 19.8599C15.6059 19.9336 15.6779 20.0023 15.7458 20.0702L15.7458 20.0702L15.7503 20.0746C16.1364 20.4511 16.1445 21.0644 15.7604 21.4485L13.0625 24.1464C12.6919 24.517 12.1003 24.5245 11.7082 24.1559C11.6256 24.0734 11.5437 23.9952 11.4662 23.9213L11.4644 23.9195C11.3838 23.8426 11.308 23.7703 11.2329 23.6951C9.74861 22.1964 8.40944 20.6267 7.21489 18.9861C6.03762 17.3492 5.09551 15.7201 4.41268 14.1132C3.7477 12.4995 3.41602 10.9757 3.41602 9.53746C3.41602 8.60505 3.58044 7.7206 3.90525 6.90857Z" fill="url(#paint2_linear_1_498)" stroke="white"/>
<path d="M31.2278 28.0972L31.2277 28.0971L31.2229 28.1073C30.9948 28.5903 30.7008 29.0444 30.3128 29.4725C29.6574 30.1948 28.9475 30.7098 28.1568 31.0437H28.1501L28.0595 31.0806C27.2591 31.4062 26.3898 31.5833 25.4479 31.5833C24.0395 31.5833 22.5166 31.2519 20.8897 30.5587C19.2517 29.8608 17.608 28.9184 15.9734 27.7285C15.5544 27.4169 15.1427 27.1107 14.7451 26.7953L18.8213 22.7191C19.1088 22.9182 19.3755 23.0816 19.6159 23.2075L19.6385 23.2193L19.6622 23.2288C19.6854 23.2381 19.7145 23.2512 19.7599 23.272C19.7636 23.2736 19.7673 23.2754 19.7712 23.2771C19.8113 23.2955 19.8606 23.3181 19.9135 23.3408L19.9241 23.3453L19.9349 23.3494C20.1246 23.4205 20.305 23.4396 20.475 23.4396C20.862 23.4396 21.1764 23.2947 21.4252 23.0465C21.4256 23.046 21.426 23.0456 21.4265 23.0452L22.5325 21.9538L22.5325 21.9538L22.5348 21.9514C22.8792 21.6071 23.1884 21.3675 23.4625 21.2245L23.4771 21.2169L23.4912 21.2083C23.7581 21.0459 24.0046 20.975 24.2667 20.975C24.4705 20.975 24.6979 21.0173 24.9669 21.1273C25.2447 21.241 25.5475 21.4101 25.8918 21.644L30.7147 25.0681L30.7147 25.0681L30.7196 25.0715C31.0315 25.2874 31.227 25.5227 31.3453 25.7876C31.4708 26.1035 31.5396 26.4023 31.5396 26.7312C31.5396 27.0796 31.4774 27.4444 31.3512 27.7991C31.3069 27.9172 31.2721 28.0086 31.2278 28.0972Z" fill="url(#paint3_linear_1_498)" stroke="white"/>
<defs>
<linearGradient id="paint0_linear_1_498" x1="23.0775" y1="8.16663" x2="23.0775" y2="15.677" gradientUnits="userSpaceOnUse">
<stop stop-color="#004705"/>
<stop offset="1" stop-color="#00AD0C"/>
</linearGradient>
<linearGradient id="paint1_linear_1_498" x1="25.7108" y1="2.91663" x2="25.7108" y2="15.677" gradientUnits="userSpaceOnUse">
<stop stop-color="#004705"/>
<stop offset="1" stop-color="#00AD0C"/>
</linearGradient>
<linearGradient id="paint2_linear_1_498" x1="9.73011" y1="2.91663" x2="9.73011" y2="24.9284" gradientUnits="userSpaceOnUse">
<stop stop-color="#004705"/>
<stop offset="1" stop-color="#00AD0C"/>
</linearGradient>
<linearGradient id="paint3_linear_1_498" x1="23.0198" y1="20.475" x2="23.0198" y2="32.0833" gradientUnits="userSpaceOnUse">
<stop stop-color="#004705"/>
<stop offset="1" stop-color="#00AD0C"/>
</linearGradient>
</defs>
</svg>
