<svg width="49" height="49" viewBox="0 0 49 49" fill="none" xmlns="http://www.w3.org/2000/svg">
<g clip-path="url(#clip0_1_368)">
<path d="M21.4366 24.5C22.8585 24.4998 24.2662 24.7826 25.5778 25.3317C26.8894 25.8809 28.0785 26.6855 29.0761 27.6988C30.0737 28.712 30.8597 29.9136 31.3883 31.2335C31.917 32.5535 32.1777 33.9655 32.1554 35.3872C32.1518 35.6226 32.2025 35.8556 32.3036 36.0682C32.4047 36.2808 32.5535 36.4672 32.7384 36.613C32.9232 36.7588 33.1392 36.8599 33.3695 36.9087C33.5999 36.9574 33.8383 36.9523 34.0664 36.8939C34.7454 36.72 35.4553 36.7034 36.1417 36.8455C36.8281 36.9876 37.473 37.2846 38.0272 37.7138C38.5814 38.143 39.0303 38.6932 39.3395 39.3223C39.6488 39.9514 39.8102 40.6428 39.8116 41.3437C39.8116 42.5621 39.3276 43.7305 38.4662 44.592C37.6047 45.4535 36.4362 45.9375 35.2179 45.9375H9.18663C8.37232 45.9329 7.5671 45.766 6.81807 45.4465C6.06904 45.127 5.39124 44.6613 4.82432 44.0767C4.2574 43.4922 3.81274 42.8004 3.51635 42.0419C3.21995 41.2835 3.07778 40.4735 3.09814 39.6594C3.1185 38.8454 3.30099 38.0435 3.63493 37.3008C3.96887 36.5581 4.44756 35.8895 5.043 35.334C5.63844 34.7785 6.33867 34.3473 7.10274 34.0656C7.8668 33.784 8.67936 33.6575 9.49288 33.6936C9.84575 33.7118 10.194 33.6074 10.4787 33.398C10.7634 33.1887 10.9669 32.8874 11.0548 32.5452C11.6488 30.2431 12.9909 28.2037 14.8701 26.7475C16.7493 25.2912 19.0592 24.5006 21.4366 24.5ZM35.1352 33.6875C34.7906 30.5825 33.4014 27.6868 31.1952 25.475C28.9889 23.2632 26.0967 21.8666 22.9926 21.5142C19.8886 21.1618 16.7569 21.8745 14.111 23.5354C11.4651 25.1963 9.46203 27.7069 8.4302 30.6556C6.06576 30.8492 3.86784 31.9498 2.29651 33.7271C0.725179 35.5044 -0.0977454 37.8207 -4.10434e-06 40.191C0.0977372 42.5614 1.10857 44.802 2.82089 46.4439C4.53322 48.0859 6.81429 49.0018 9.18663 49H35.2179C37.2484 49 39.1958 48.1934 40.6317 46.7575C42.0675 45.3217 42.8741 43.3743 42.8741 41.3437C42.8741 39.3132 42.0675 37.3658 40.6317 35.93C39.1958 34.4941 37.2484 33.6875 35.2179 33.6875H35.1352Z" fill="white"/>
<path d="M32.1545 4.59375C32.1545 4.18764 31.9932 3.79816 31.706 3.51099C31.4188 3.22383 31.0294 3.0625 30.6232 3.0625C30.2171 3.0625 29.8277 3.22383 29.5405 3.51099C29.2533 3.79816 29.092 4.18764 29.092 4.59375V7.65625C29.092 8.06236 29.2533 8.45184 29.5405 8.73901C29.8277 9.02617 30.2171 9.1875 30.6232 9.1875C31.0294 9.1875 31.4188 9.02617 31.706 8.73901C31.9932 8.45184 32.1545 8.06236 32.1545 7.65625V4.59375ZM43.6174 10.6085C43.7637 10.4672 43.8803 10.2983 43.9606 10.1115C44.0408 9.92464 44.0831 9.72371 44.0848 9.52039C44.0866 9.31708 44.0479 9.11544 43.9709 8.92726C43.8939 8.73907 43.7802 8.56811 43.6364 8.42433C43.4926 8.28056 43.3217 8.16686 43.1335 8.08987C42.9453 8.01287 42.7437 7.97413 42.5403 7.9759C42.337 7.97766 42.1361 8.01991 41.9493 8.10016C41.7625 8.18041 41.5935 8.29706 41.4522 8.44331L39.284 10.6085C38.9965 10.896 38.8349 11.286 38.8349 11.6926C38.8349 12.0992 38.9965 12.4892 39.284 12.7767C39.5715 13.0643 39.9615 13.2258 40.3681 13.2258C40.7747 13.2258 41.1647 13.0643 41.4522 12.7767L43.6174 10.6085ZM19.7942 8.44331C19.5054 8.16438 19.1187 8.01004 18.7172 8.01353C18.3157 8.01702 17.9316 8.17806 17.6477 8.46196C17.3638 8.74587 17.2028 9.12993 17.1993 9.53142C17.1958 9.93291 17.3501 10.3197 17.6291 10.6085L19.7942 12.7767C19.9366 12.9191 20.1056 13.0321 20.2916 13.1091C20.4777 13.1862 20.677 13.2258 20.8784 13.2258C21.0797 13.2258 21.2791 13.1862 21.4651 13.1091C21.6511 13.0321 21.8201 12.9191 21.9625 12.7767C22.1049 12.6344 22.2178 12.4654 22.2948 12.2793C22.3719 12.0933 22.4116 11.894 22.4116 11.6926C22.4116 11.4913 22.3719 11.2919 22.2948 11.1059C22.2178 10.9199 22.1049 10.7509 21.9625 10.6085L19.7942 8.44331ZM25.1046 18.7762C25.4852 17.9874 26.0306 17.2894 26.7039 16.7293C27.3772 16.1692 28.1628 15.76 29.0077 15.5294C29.8526 15.2987 30.7371 15.2519 31.6016 15.3921C32.4662 15.5324 33.2905 15.8564 34.0192 16.3423C34.7479 16.8282 35.3638 17.4647 35.8256 18.2089C36.2873 18.9531 36.5841 19.7877 36.6959 20.6564C36.8076 21.525 36.7318 22.4075 36.4735 23.2444C36.2153 24.0813 35.7805 24.853 35.1986 25.5076C35.8081 26.3681 36.3379 27.2899 36.7789 28.2577C37.8167 27.3199 38.6268 26.1576 39.1473 24.8593C39.6677 23.561 39.8849 22.161 39.7822 20.766C39.6795 19.371 39.2596 18.0179 38.5546 16.8098C37.8495 15.6017 36.878 14.5706 35.714 13.795C34.5499 13.0194 33.2242 12.5198 31.8378 12.3343C30.4514 12.1488 29.0409 12.2823 27.714 12.7247C26.387 13.167 25.1786 13.9065 24.1808 14.8868C23.183 15.8671 22.4222 17.0622 21.9564 18.3811C23.0344 18.4148 24.0879 18.5496 25.1046 18.7762ZM38.8369 31.2528C40.6744 31.9112 42.2822 33.0597 43.498 34.5358C43.6647 34.4008 43.8012 34.2322 43.8986 34.0411C43.996 33.8499 44.0522 33.6404 44.0635 33.4262C44.0747 33.212 44.0408 32.9977 43.964 32.7974C43.8872 32.5971 43.7691 32.4152 43.6174 32.2634L41.4522 30.0982C41.234 29.8787 40.9542 29.7304 40.6499 29.673C40.3457 29.6157 40.0311 29.6519 39.7479 29.777C39.4646 29.902 39.2259 30.11 39.0633 30.3735C38.9006 30.637 38.8217 30.9435 38.8369 31.2528ZM44.4045 19.9062C43.9984 19.9062 43.6089 20.0676 43.3217 20.3547C43.0346 20.6419 42.8732 21.0314 42.8732 21.4375C42.8732 21.8436 43.0346 22.2331 43.3217 22.5203C43.6089 22.8074 43.9984 22.9687 44.4045 22.9687H47.467C47.8731 22.9687 48.2626 22.8074 48.5498 22.5203C48.8369 22.2331 48.9982 21.8436 48.9982 21.4375C48.9982 21.0314 48.8369 20.6419 48.5498 20.3547C48.2626 20.0676 47.8731 19.9062 47.467 19.9062H44.4045Z" fill="white"/>
</g>
<defs>
<clipPath id="clip0_1_368">
<rect width="49" height="49" fill="white"/>
</clipPath>
</defs>
</svg>
