<svg width="28" height="28" viewBox="0 0 28 28" fill="none" xmlns="http://www.w3.org/2000/svg">
<rect x="0.839844" y="0.52002" width="26.52" height="26.52" rx="13.26" fill="url(#paint0_linear_1_480)"/>
<g clip-path="url(#clip0_1_480)" filter="url(#filter0_i_1_480)">
<g filter="url(#filter1_i_1_480)">
<path d="M19.249 21.2979C20.3359 20.8779 21.1952 20.0187 21.6151 18.9317C21.8139 18.4169 21.9531 17.8294 21.9908 16.9701C21.9998 16.7689 22.0067 16.5999 22.0132 16.4304V10.6892C22.0087 10.5695 22.0037 10.4447 21.9973 10.3046C21.9595 9.44528 21.8204 8.85487 21.6216 8.34297C21.4163 7.79977 21.1002 7.31322 20.6867 6.90917C20.2822 6.49816 19.7927 6.17909 19.2554 5.97732C18.7405 5.77852 18.1531 5.63937 17.2938 5.6016C16.4281 5.56035 16.1532 5.5509 13.958 5.5509C11.7629 5.5509 11.4875 5.56035 10.6253 5.59812C9.76597 5.63589 9.17555 5.77504 8.66366 5.97384C8.12045 6.17909 7.6339 6.49518 7.22936 6.90917C6.81885 7.31371 6.49978 7.80324 6.29751 8.33999C6.09871 8.85487 5.95956 9.4423 5.92179 10.3016C5.88054 11.1673 5.87109 11.4422 5.87109 13.6379C5.87109 15.8335 5.88054 16.1084 5.91831 16.9706C5.95608 17.8299 6.09523 18.4208 6.29453 18.9322C6.49978 19.4755 6.81885 19.962 7.22936 20.3665C7.6339 20.7771 8.12343 21.0966 8.66067 21.2984C9.17555 21.4972 9.76299 21.6363 10.6223 21.6741C11.4845 21.7124 11.7594 21.7218 13.9551 21.7218C16.1507 21.7218 16.4251 21.7124 17.2879 21.6741C18.1471 21.6363 18.7376 21.4972 19.2495 21.2984L19.249 21.2979ZM13.961 20.2681C11.8031 20.2681 11.5442 20.2587 10.6943 20.2209C9.90463 20.1861 9.47822 20.0534 9.19394 19.9431C8.84357 19.8134 8.5245 19.6081 8.26507 19.3398C7.9967 19.0774 7.79095 18.7618 7.66173 18.4109C7.5514 18.1266 7.41871 17.6967 7.38392 16.9105C7.34615 16.0577 7.3367 15.8017 7.3367 13.6438C7.3367 11.4859 7.34615 11.227 7.38392 10.3776C7.41871 9.58792 7.5514 9.16151 7.66173 8.87723C7.79145 8.52636 7.9967 8.20729 8.26855 7.94836C8.53046 7.67999 8.84655 7.47474 9.19692 7.34502C9.4812 7.23469 9.91109 7.102 10.6973 7.06721C11.5502 7.02944 11.8061 7.01999 13.9635 7.01999C16.1209 7.01999 16.3804 7.02944 17.2302 7.06721C18.0199 7.102 18.4463 7.23469 18.7306 7.34502C19.081 7.47474 19.4 7.67999 19.659 7.94836C19.9273 8.21077 20.1331 8.52636 20.2623 8.87723C20.3726 9.16151 20.5053 9.5909 20.5401 10.3776C20.5779 11.2305 20.5873 11.4864 20.5873 13.6438C20.5873 15.8012 20.5779 16.0542 20.5401 16.907C20.5053 17.6967 20.3726 18.1232 20.2623 18.4074C19.9905 19.1122 19.4314 19.6713 18.7271 19.9426C18.4428 20.0529 18.0135 20.1856 17.2267 20.2204C16.3739 20.2582 16.1179 20.2676 13.9605 20.2676L13.961 20.2681Z" fill="white"/>
<path d="M13.959 9.48303C11.6654 9.48303 9.80469 11.3437 9.80469 13.6373C9.80469 15.9309 11.6654 17.7916 13.959 17.7916C16.2526 17.7916 18.1128 15.9309 18.1128 13.6373C18.1128 11.3437 16.2521 9.48303 13.959 9.48303ZM13.959 16.3315C12.471 16.3315 11.2643 15.1248 11.2643 13.6368C11.2643 12.1489 12.471 10.9422 13.959 10.9422C15.447 10.9422 16.6537 12.1489 16.6537 13.6368C16.6537 15.1248 15.447 16.3315 13.959 16.3315Z" fill="white"/>
<path d="M19.2444 9.31898C19.2444 8.78323 18.8101 8.34937 18.2743 8.34937C17.7386 8.34937 17.3047 8.78373 17.3047 9.31898C17.3047 9.85424 17.7391 10.2886 18.2743 10.2886C18.8096 10.2886 19.2444 9.85473 19.2444 9.31898Z" fill="white"/>
</g>
</g>
<defs>
<filter id="filter0_i_1_480" x="5.87109" y="5.5509" width="16.1719" height="16.6709" filterUnits="userSpaceOnUse" color-interpolation-filters="sRGB">
<feFlood flood-opacity="0" result="BackgroundImageFix"/>
<feBlend mode="normal" in="SourceGraphic" in2="BackgroundImageFix" result="shape"/>
<feColorMatrix in="SourceAlpha" type="matrix" values="0 0 0 0 0 0 0 0 0 0 0 0 0 0 0 0 0 0 127 0" result="hardAlpha"/>
<feOffset dy="0.5"/>
<feGaussianBlur stdDeviation="1.25"/>
<feComposite in2="hardAlpha" operator="arithmetic" k2="-1" k3="1"/>
<feColorMatrix type="matrix" values="0 0 0 0 0 0 0 0 0 0 0 0 0 0 0 0 0 0 0.2 0"/>
<feBlend mode="normal" in2="shape" result="effect1_innerShadow_1_480"/>
</filter>
<filter id="filter1_i_1_480" x="5.87109" y="5.5509" width="16.1406" height="16.6709" filterUnits="userSpaceOnUse" color-interpolation-filters="sRGB">
<feFlood flood-opacity="0" result="BackgroundImageFix"/>
<feBlend mode="normal" in="SourceGraphic" in2="BackgroundImageFix" result="shape"/>
<feColorMatrix in="SourceAlpha" type="matrix" values="0 0 0 0 0 0 0 0 0 0 0 0 0 0 0 0 0 0 127 0" result="hardAlpha"/>
<feOffset dy="0.5"/>
<feGaussianBlur stdDeviation="1.25"/>
<feComposite in2="hardAlpha" operator="arithmetic" k2="-1" k3="1"/>
<feColorMatrix type="matrix" values="0 0 0 0 0 0 0 0 0 0 0 0 0 0 0 0 0 0 0.1 0"/>
<feBlend mode="normal" in2="shape" result="effect1_innerShadow_1_480"/>
</filter>
<linearGradient id="paint0_linear_1_480" x1="14.0998" y1="-0.306314" x2="14.0998" y2="28.4298" gradientUnits="userSpaceOnUse">
<stop stop-color="#FCA759"/>
<stop offset="0.19" stop-color="#E82D56"/>
<stop offset="0.74" stop-color="#A22DB4"/>
<stop offset="1" stop-color="#643DCE"/>
</linearGradient>
<clipPath id="clip0_1_480">
<rect width="16.1709" height="16.1709" fill="white" transform="translate(5.87109 5.5509)"/>
</clipPath>
</defs>
</svg>
