<svg width="27" height="27" viewBox="0 0 27 27" fill="none" xmlns="http://www.w3.org/2000/svg">
<rect x="0.5" y="0.5" width="26" height="26" rx="1.5" fill="white" stroke="#015019"/>
<path d="M14.0655 18.5936L22.3624 9.88578C22.5009 9.74049 22.5781 9.54745 22.5781 9.34672C22.5781 9.14598 22.5009 8.95295 22.3624 8.80766L22.353 8.79828C22.2858 8.7276 22.205 8.67132 22.1154 8.63286C22.0258 8.5944 21.9294 8.57457 21.8319 8.57457C21.7344 8.57457 21.6379 8.5944 21.5483 8.63286C21.4588 8.67132 21.3779 8.7276 21.3108 8.79828L13.4983 16.9983L5.68891 8.79828C5.62177 8.7276 5.54095 8.67132 5.45136 8.63286C5.36178 8.5944 5.26531 8.57457 5.16782 8.57457C5.07033 8.57457 4.97386 8.5944 4.88428 8.63286C4.79469 8.67132 4.71387 8.7276 4.64673 8.79828L4.63735 8.80766C4.49884 8.95295 4.42158 9.14598 4.42158 9.34672C4.42158 9.54745 4.49884 9.74049 4.63735 9.88578L12.9342 18.5936C13.0072 18.6702 13.0949 18.7311 13.1922 18.7728C13.2894 18.8145 13.3941 18.8359 13.4999 18.8359C13.6056 18.8359 13.7103 18.8145 13.8075 18.7728C13.9048 18.7311 13.9925 18.6702 14.0655 18.5936Z" fill="#015019"/>
</svg>
