<svg width="77" height="77" viewBox="0 0 77 77" fill="none" xmlns="http://www.w3.org/2000/svg">
<path d="M36 1.44337C37.547 0.550211 39.453 0.550212 41 1.44338L69.342 17.8066C70.889 18.6998 71.842 20.3504 71.842 22.1368V54.8633C71.842 56.6496 70.889 58.3002 69.342 59.1934L41 75.5566C39.453 76.4498 37.547 76.4498 36 75.5566L7.65802 59.1934C6.11102 58.3002 5.15802 56.6496 5.15802 54.8633V22.1367C5.15802 20.3504 6.11102 18.6998 7.65802 17.8066L36 1.44337Z" fill="#015019"/>
<mask id="mask0_2148_10911" style="mask-type:luminance" maskUnits="userSpaceOnUse" x="52" y="25" width="9" height="30">
<path d="M52.0117 25.4673H60.1955V54.8684H52.0117V25.4673Z" fill="white"/>
</mask>
<g mask="url(#mask0_2148_10911)">
<path d="M58.7811 49.9822C58.1694 50.6296 57.5574 51.2742 56.9427 51.9217C56.9427 44.101 56.9427 36.2801 56.9427 28.4622C57.5574 29.1068 58.1694 29.7514 58.7811 30.3989C59.5214 31.1775 60.6961 29.9972 59.9586 29.2214C58.874 28.0768 57.7869 26.9323 56.6997 25.7878C56.5739 25.6541 56.4182 25.5803 56.2626 25.5555C56.0194 25.4956 55.7517 25.5474 55.5251 25.7878C54.4351 26.9323 53.3506 28.0768 52.2634 29.2214C51.5259 29.9972 52.7006 31.1775 53.4406 30.3989C54.0526 29.7514 54.6674 29.1068 55.2791 28.4622C55.2791 36.2801 55.2791 44.101 55.2791 51.9217C54.6674 51.2742 54.0526 50.6296 53.4406 49.9822C52.7006 49.2036 51.5259 50.3839 52.2634 51.1597C53.3506 52.3042 54.4351 53.4487 55.5251 54.5961C55.5279 54.5986 55.5332 54.6043 55.5386 54.6071C55.5386 54.6096 55.5386 54.6096 55.5386 54.6096C55.7109 54.7819 55.9048 54.85 56.0931 54.8475C56.0988 54.8475 56.1069 54.8475 56.1123 54.8475C56.1179 54.8475 56.1232 54.8475 56.1286 54.8475C56.3144 54.8528 56.5083 54.7819 56.6806 54.6124C56.6806 54.6096 56.6831 54.6071 56.6888 54.6071C56.6916 54.6015 56.6969 54.5986 56.6997 54.5961C57.7869 53.4487 58.874 52.3042 59.9586 51.1597C60.6961 50.3839 59.5214 49.2036 58.7811 49.9822Z" fill="white"/>
</g>
<mask id="mask1_2148_10911" style="mask-type:luminance" maskUnits="userSpaceOnUse" x="17" y="19" width="34" height="39">
<path d="M17 19H50.8591V58H17V19Z" fill="white"/>
</mask>
<g mask="url(#mask1_2148_10911)">
<path d="M47.0017 30.5247C46.4663 30.7736 45.9911 30.858 45.494 30.8938C45.9883 29.6152 45.9117 28.2413 45.3108 26.9383C45.3355 26.8752 45.3572 26.8124 45.382 26.7497C45.3983 26.706 45.4174 26.6596 45.4338 26.6159C45.5103 26.4 45.5785 26.187 45.6359 25.9711C45.6359 25.9685 45.6359 25.9685 45.6359 25.9657C45.688 25.7608 45.7262 25.5559 45.7589 25.3484C45.7699 25.2772 45.7808 25.2034 45.789 25.1325C45.7944 25.0832 45.8 25.0342 45.8053 24.985C45.8135 24.8921 45.8245 24.7992 45.8298 24.7038C45.8464 24.6354 45.8571 24.5616 45.8518 24.4769C45.8546 24.4606 45.8518 24.4442 45.8518 24.4276C47.1956 24.5014 48.5316 25.0807 48.9986 26.4791C49.5694 28.1839 48.4142 29.7163 47.0017 30.5247ZM45.9337 35.9828C44.0407 37.1519 42.093 36.2367 41.0166 34.6252C40.9102 34.4203 40.8255 34.2125 40.7436 34.0023C42.0902 34.0541 43.355 33.5733 44.3903 32.601C45.2809 32.6691 46.1085 32.5762 46.9389 32.3114C47.3243 33.658 47.0318 35.0131 45.9337 35.9828ZM38.2549 30.9456C37.8752 30.3882 37.717 29.7546 37.7113 29.0933C37.9517 28.5909 37.8833 27.8942 38.2166 27.3808C38.6591 26.6922 39.2821 26.2908 40.0306 26.0341C40.5688 26.0912 41.1478 25.8483 41.7268 25.9902C42.5217 26.187 43.1309 26.6539 43.6117 27.2988C43.7237 27.9162 44.1882 28.4242 44.1882 29.1344C44.1882 29.8939 43.9151 30.5112 43.5081 31.104C43.1557 31.3416 42.8716 31.776 42.4944 31.9837C41.6339 32.4479 40.7489 32.4316 39.8529 32.172C39.4214 31.716 38.6648 31.5494 38.2549 30.9456ZM34.9933 34.7071C34.3596 33.1009 35.018 31.4427 36.209 30.3474C36.4576 31.3115 36.9848 32.1912 37.7631 32.8521C38.4981 33.475 38.6619 33.6881 39.0417 34.5951C39.2275 35.0376 39.4707 35.4337 39.7493 35.8106C38.113 36.8431 35.8265 36.8214 34.9933 34.7071ZM34.2313 30.0524C32.7535 28.8231 32.0568 26.7004 33.7724 25.2226C35.0918 24.089 36.9274 24.201 38.3534 25.0151C37.1897 25.758 36.452 26.8943 36.1516 28.3176C35.3812 28.7657 34.7475 29.3447 34.2313 30.0524ZM41.2517 20.6908C43.038 20.8876 44.0134 22.5647 44.169 24.212C44.1744 24.3649 44.1772 24.518 44.1718 24.6708C44.1637 24.7882 44.1555 24.9112 44.1417 25.0233C44.1389 25.0286 44.1389 25.0342 44.1389 25.0396C44.1226 25.168 44.0953 25.2882 44.0708 25.4112C43.0025 24.5233 41.686 24.1464 40.2217 24.3103C40.1918 24.283 40.1617 24.2556 40.1316 24.2312C40.1015 24.2064 40.0716 24.1847 40.0415 24.1599C39.4186 23.6547 38.7385 23.2806 37.9819 23.0292C38.5091 21.6496 39.6182 20.5132 41.2517 20.6908ZM30.224 38.6761C28.9128 37.5344 27.2109 36.5864 25.4817 36.5317C24.4109 36.5016 24.4109 38.1652 25.4817 38.1982C26.7766 38.2365 28.5767 39.3346 29.6556 40.4217C29.6993 40.4653 29.7404 40.5174 29.784 40.5638C29.3195 41.2357 28.7377 41.8804 28.0768 42.3338C25.4597 44.1258 24.1021 40.6401 22.8346 38.9084C22.0098 37.783 20.9581 36.3814 19.7016 35.4474C21.3021 34.7781 22.9959 34.2618 24.6868 33.9941C26.0689 33.7757 27.88 33.6254 29.0766 34.5185C30.3304 35.4528 30.4233 37.1274 30.224 38.6761ZM45.5568 22.7559C44.9778 20.8738 43.5844 19.2896 41.4783 19.0326C38.9789 18.7294 37.0366 20.5214 36.3129 22.7477C34.8159 22.6849 33.3243 23.182 32.2262 24.4003C30.1336 26.7252 31.1991 29.8776 33.4445 31.5465C32.9091 32.9779 32.9283 34.5895 33.7724 36.0073C34.2121 36.742 34.7777 37.2693 35.4141 37.6163C34.6383 39.7168 34.2448 42.0225 34.0455 44.3361C33.4499 42.82 32.6715 41.3996 31.6444 40.1512C32.3681 35.9935 31.1909 32.0681 26.1784 32.1858C23.1735 32.2567 20.0838 33.352 17.404 34.6717C16.7403 34.9993 16.9562 36.002 17.6036 36.1931C21.3322 37.2884 21.8403 42.7082 25.1647 44.2325C27.3747 45.2487 29.5273 43.6478 30.8796 41.8913C33.7449 45.9206 34.1848 51.616 34.2504 56.3363C30.325 56.3363 26.4022 56.3363 22.4796 56.3363C21.4088 56.3363 21.406 57.9999 22.4796 57.9999C30.8821 57.9999 39.2849 57.9999 47.6902 57.9999C48.761 57.9999 48.761 56.3363 47.6902 56.3363C43.7648 56.3363 39.8394 56.3363 35.914 56.3363C35.8867 54.3479 35.7829 52.2251 35.4879 50.1165C35.496 50.0726 35.5014 50.0318 35.5014 49.9853C35.5152 46.1281 35.6463 41.8176 37.0011 38.1025C38.3425 38.25 39.7792 37.8213 40.951 36.988C42.593 38.2747 44.8246 38.6733 46.8297 37.3869C46.8843 37.3512 46.9307 37.3132 46.9744 37.2721C46.9825 37.2667 46.991 37.2639 46.9991 37.2557C48.772 35.8052 49.0861 33.6172 48.4277 31.5792C50.1789 30.3173 51.2823 28.2303 50.6022 26.0366C49.9219 23.8323 47.7229 22.7367 45.5568 22.7559Z" fill="white"/>
</g>
</svg>
