<svg width="77" height="77" viewBox="0 0 77 77" fill="none" xmlns="http://www.w3.org/2000/svg">
<path d="M36 1.44337C37.547 0.550211 39.453 0.550212 41 1.44338L69.342 17.8066C70.889 18.6998 71.842 20.3504 71.842 22.1368V54.8633C71.842 56.6496 70.889 58.3002 69.342 59.1934L41 75.5566C39.453 76.4498 37.547 76.4498 36 75.5566L7.65802 59.1934C6.11102 58.3002 5.15802 56.6496 5.15802 54.8633V22.1367C5.15802 20.3504 6.11102 18.6998 7.65802 17.8066L36 1.44337Z" fill="#015019"/>
<mask id="mask0_2148_10910" style="mask-type:luminance" maskUnits="userSpaceOnUse" x="19" y="22" width="39" height="38">
<path d="M19 22H58V59.9762H19V22Z" fill="white"/>
</mask>
<g mask="url(#mask0_2148_10910)">
<path d="M57.2863 29.1456C57.1796 29.1453 57.073 29.1428 56.9664 29.1372C56.86 29.1319 56.7536 29.124 56.6474 29.1136C56.5413 29.1029 56.4354 29.0897 56.3298 29.074C56.2244 29.0582 56.1193 29.0399 56.0147 29.0191C55.9101 28.9983 55.806 28.9747 55.7027 28.9488C55.5993 28.9226 55.4965 28.8942 55.3944 28.8632C55.2923 28.8322 55.191 28.7987 55.0907 28.7627C54.9902 28.7266 54.8909 28.6883 54.7922 28.6474C54.6936 28.6065 54.5964 28.5634 54.4999 28.5177C54.4034 28.472 54.3082 28.424 54.2143 28.3737C54.1201 28.3234 54.0274 28.2709 53.936 28.216C53.8443 28.1612 53.7542 28.104 53.6656 28.0446C53.577 27.9855 53.4899 27.924 53.404 27.8605C53.3185 27.7968 53.2344 27.7313 53.1519 27.6638C53.0694 27.596 52.9887 27.5264 52.9097 27.4548C52.8307 27.3832 52.7533 27.3096 52.6779 27.2342C52.6025 27.1588 52.5288 27.0816 52.4572 27.0026C52.3856 26.9234 52.3161 26.8426 52.2483 26.7604C52.1805 26.6779 52.115 26.5938 52.0515 26.5082C51.9878 26.4224 51.9263 26.3353 51.8671 26.2467C51.8077 26.1581 51.7506 26.068 51.6958 25.9766C51.6409 25.8852 51.5884 25.7922 51.5378 25.6983C51.4876 25.6043 51.4396 25.5089 51.3939 25.4126C51.3482 25.3162 51.305 25.2187 51.2641 25.1201C51.2232 25.0216 51.1847 24.9223 51.1486 24.8218C51.1125 24.7215 51.079 24.6202 51.048 24.5181C51.0171 24.4161 50.9884 24.3135 50.9625 24.2099C50.9363 24.1065 50.913 24.0024 50.8919 23.8978C50.8711 23.7932 50.8528 23.6881 50.8371 23.5827C50.8213 23.4771 50.8081 23.3715 50.7974 23.2654C50.7868 23.1592 50.7789 23.0528 50.7736 22.9462C50.768 22.8398 50.7655 22.7332 50.7652 22.6265C50.7652 22.5839 50.7611 22.5417 50.7528 22.4998C50.7444 22.4582 50.7322 22.4176 50.7157 22.3782C50.6994 22.3388 50.6796 22.3013 50.6558 22.266C50.6322 22.2304 50.6052 22.1977 50.575 22.1677C50.5451 22.1375 50.5123 22.1106 50.4768 22.087C50.4415 22.0631 50.4039 22.0433 50.3645 22.0271C50.3252 22.0105 50.2846 21.9984 50.2429 21.99C50.201 21.9816 50.1589 21.9775 50.1162 21.9775H26.8201C26.7774 21.9775 26.7353 21.9816 26.6936 21.99C26.6517 21.9984 26.6111 22.0105 26.5717 22.0271C26.5324 22.0433 26.4951 22.0631 26.4595 22.087C26.4242 22.1106 26.3915 22.1375 26.3613 22.1677C26.331 22.1977 26.3041 22.2304 26.2805 22.266C26.2569 22.3013 26.2368 22.3388 26.2206 22.3782C26.2043 22.4176 26.1919 22.4582 26.1838 22.4998C26.1754 22.5417 26.1711 22.5839 26.1711 22.6265C26.1711 22.7332 26.1683 22.8398 26.1629 22.9462C26.1576 23.0528 26.1495 23.1592 26.1391 23.2654C26.1284 23.3715 26.1152 23.4774 26.0995 23.5827C26.0837 23.6884 26.0652 23.7935 26.0444 23.8981C26.0233 24.0027 25.9999 24.1068 25.974 24.2101C25.9479 24.3135 25.9195 24.4163 25.8882 24.5184C25.8572 24.6204 25.8237 24.7218 25.7877 24.8221C25.7516 24.9226 25.713 25.0219 25.6721 25.1206C25.6313 25.2192 25.5881 25.3164 25.5424 25.4129C25.4967 25.5094 25.4487 25.6046 25.3982 25.6985C25.3479 25.7927 25.2954 25.8854 25.2405 25.9768C25.1854 26.0685 25.1283 26.1584 25.0691 26.2472C25.0097 26.3358 24.9483 26.4229 24.8848 26.5085C24.8211 26.5943 24.7555 26.6784 24.6878 26.7606C24.62 26.8431 24.5504 26.9239 24.4788 27.0029C24.4069 27.0821 24.3336 27.1593 24.2579 27.2347C24.1825 27.3101 24.1053 27.3835 24.0263 27.4551C23.9471 27.5269 23.8664 27.5965 23.7838 27.664C23.7016 27.7318 23.6173 27.7973 23.5317 27.8611C23.4459 27.9245 23.3588 27.986 23.2702 28.0451C23.1813 28.1046 23.0912 28.1614 22.9998 28.2163C22.9084 28.2711 22.8154 28.3239 22.7215 28.3742C22.6273 28.4245 22.5321 28.4725 22.4356 28.5179C22.3394 28.5636 22.2419 28.607 22.1431 28.6477C22.0446 28.6885 21.9453 28.7271 21.8448 28.7629C21.7442 28.799 21.6432 28.8325 21.5411 28.8635C21.439 28.8945 21.3362 28.9231 21.2326 28.949C21.1293 28.9749 21.0252 28.9983 20.9205 29.0194C20.8159 29.0402 20.7108 29.0585 20.6054 29.0742C20.4998 29.09 20.3939 29.1032 20.2878 29.1136C20.1817 29.1242 20.0753 29.1321 19.9687 29.1374C19.8623 29.1428 19.7556 29.1453 19.649 29.1456C19.6063 29.1456 19.5642 29.1496 19.5223 29.158C19.4806 29.1664 19.44 29.1786 19.4007 29.1948C19.3613 29.2111 19.3237 29.2311 19.2884 29.2547C19.2529 29.2786 19.2201 29.3055 19.1902 29.3355C19.16 29.3657 19.133 29.3985 19.1094 29.434C19.0856 29.4693 19.0658 29.5066 19.0495 29.546C19.033 29.5853 19.0208 29.626 19.0124 29.6679C19.0041 29.7095 19 29.7519 19 29.7943C19 30.0962 19 30.3785 19.0155 30.666C19.0429 31.9434 19.1404 33.2154 19.3077 34.4822C19.4751 35.7487 19.7112 37.0024 20.0166 38.243C20.3218 39.4839 20.6941 40.7039 21.1336 41.9038C21.5731 43.1036 22.0771 44.2753 22.6456 45.4197C23.5711 47.2666 24.6692 49.0046 25.9395 50.6339C27.0988 52.1355 28.3892 53.5145 29.8111 54.7705C30.9407 55.7874 32.1485 56.7002 33.4351 57.5092C34.7216 58.3184 36.0678 59.0118 37.4735 59.5894C37.7192 59.6973 37.9653 59.7893 38.2392 59.8931C38.3129 59.9205 38.389 59.934 38.4675 59.934C38.5457 59.934 38.6214 59.9205 38.6947 59.8931C39.5192 59.5816 40.3261 59.2299 41.116 58.8386C41.9056 58.4471 42.6742 58.0178 43.4215 57.5506C44.1687 57.0834 44.8913 56.5804 45.5888 56.0419C46.2865 55.5031 46.9561 54.9315 47.5972 54.3267C47.6312 54.3082 47.6632 54.2866 47.6932 54.262C47.7092 54.2412 47.7237 54.2196 47.7366 54.197C48.913 53.0925 49.9989 51.9052 50.9942 50.6352C51.5599 49.8935 52.0939 49.13 52.5964 48.3442C53.0989 47.5586 53.5683 46.7537 54.0043 45.9293C54.4405 45.1048 54.8417 44.2639 55.2083 43.4062C55.5749 42.5488 55.9055 41.6776 56.2003 40.7928C56.4951 39.9079 56.7528 39.0124 56.9735 38.1064C57.1941 37.2002 57.3772 36.2867 57.5227 35.3653C57.6679 34.4441 57.775 33.5183 57.8438 32.5883C57.9127 31.6582 57.9431 30.7269 57.935 29.7943C57.935 29.7519 57.9309 29.7095 57.9226 29.6679C57.9144 29.626 57.902 29.5853 57.8857 29.546C57.8695 29.5066 57.8494 29.4693 57.8258 29.434C57.802 29.3985 57.7753 29.3657 57.7451 29.3355C57.7149 29.3055 57.6821 29.2786 57.6468 29.2547C57.6113 29.2311 57.5739 29.2111 57.5346 29.1948C57.4952 29.1786 57.4546 29.1664 57.4127 29.158C57.3711 29.1496 57.3287 29.1456 57.2863 29.1456ZM38.4675 58.5916C38.3078 58.5312 38.1471 58.4674 37.9782 58.3968C36.6373 57.8456 35.3533 57.1839 34.1262 56.4118C32.8993 55.6397 31.7471 54.7683 30.67 53.7978C30.6312 53.7636 30.5936 53.726 30.5548 53.6914C30.8569 53.6249 31.1624 53.6046 31.4706 53.631C31.7791 53.6574 32.0767 53.729 32.3631 53.8458C32.3986 53.8636 32.4352 53.8778 32.473 53.8887C32.5111 53.8999 32.5497 53.9073 32.5891 53.9111C32.6284 53.9151 32.6678 53.9154 32.7071 53.9121C32.7465 53.9088 32.7851 53.9019 32.8232 53.8918C32.8615 53.8814 32.8983 53.8677 32.9339 53.8504C32.9694 53.8334 33.0032 53.8133 33.0352 53.79C33.0672 53.7666 33.0966 53.7407 33.124 53.712C33.1512 53.6836 33.1756 53.6526 33.1969 53.6193C33.298 53.4657 33.4112 53.3218 33.5369 53.1874C33.6628 53.0534 33.7992 52.931 33.9459 52.8203C34.093 52.7096 34.2483 52.6126 34.4121 52.5288C34.5759 52.445 34.7455 52.376 34.9212 52.3216C35.2335 52.2284 35.5527 52.1858 35.8784 52.1937C36.2042 52.2015 36.5208 52.2594 36.8283 52.3676C36.861 52.3798 36.8943 52.3889 36.9283 52.3955C36.9623 52.4024 36.9966 52.4062 37.0312 52.4072C37.0659 52.4085 37.1005 52.4067 37.1347 52.4024C37.169 52.398 37.203 52.3909 37.2363 52.381C37.2696 52.3711 37.3018 52.3589 37.333 52.344C37.3643 52.329 37.394 52.3115 37.4227 52.2917C37.4511 52.2719 37.4778 52.25 37.5027 52.2259C37.5278 52.202 37.5506 52.1761 37.5715 52.1485C37.6481 52.053 37.7302 51.9623 37.8172 51.8763C37.9043 51.7902 37.9963 51.7095 38.0925 51.634C38.189 51.5586 38.2893 51.4888 38.3936 51.4248C38.498 51.3608 38.6056 51.303 38.7168 51.2512C38.8278 51.1996 38.9413 51.1544 39.0576 51.1156C39.1736 51.077 39.2917 51.045 39.4115 51.0198C39.5311 50.9945 39.652 50.9762 39.7741 50.965C39.896 50.9536 40.0181 50.9493 40.1405 50.9518C40.3251 50.9693 40.5064 51.0033 40.6849 51.0539C40.8631 51.1044 41.0355 51.1707 41.2018 51.2527C41.3681 51.3347 41.5258 51.4309 41.6746 51.5414C41.8234 51.6521 41.9607 51.7752 42.0872 51.9108C42.1334 51.9598 42.1857 52.0007 42.2446 52.0334C42.3035 52.0662 42.3657 52.0893 42.4317 52.1025C42.4978 52.116 42.5643 52.119 42.6311 52.1114C42.6981 52.104 42.7623 52.0868 42.8238 52.0593C42.8819 52.0334 42.9416 52.0108 43.0025 51.9918C43.0635 51.9728 43.1252 51.9575 43.1879 51.9456C43.2506 51.9339 43.3138 51.926 43.3775 51.9217C43.4413 51.9174 43.505 51.9169 43.5687 51.9202C43.6325 51.9235 43.6957 51.9304 43.7587 51.941C43.8216 51.9517 43.8836 51.9662 43.9448 51.9842C44.006 52.0022 44.0659 52.0238 44.1248 52.0489C44.1834 52.0741 44.2403 52.1025 44.2957 52.1345C44.351 52.1662 44.4041 52.2013 44.4554 52.2394C44.5064 52.2774 44.5554 52.3183 44.6016 52.3622C44.6481 52.4062 44.6915 52.4526 44.7324 52.5016C44.7733 52.5506 44.8111 52.6019 44.8459 52.6555C44.8807 52.7088 44.9124 52.7642 44.9406 52.8216C44.9688 52.8787 44.9937 52.9373 45.015 52.9975C45.0363 53.0577 45.0541 53.1189 45.0683 53.1811C45.0823 53.2433 45.0927 53.3063 45.0995 53.3695C45.1028 53.4134 45.1105 53.4566 45.1224 53.499C45.1343 53.5414 45.1506 53.582 45.1709 53.6211C45.1909 53.6602 45.2151 53.6968 45.2427 53.7311C45.2704 53.7651 45.3014 53.7963 45.3354 53.8242C45.3694 53.8519 45.406 53.8763 45.4451 53.8966C45.4839 53.9172 45.5246 53.9334 45.567 53.9456C45.6094 53.9578 45.6523 53.9657 45.6962 53.969C45.7401 53.9725 45.7838 53.9715 45.8275 53.9659C45.9138 53.9547 46.0004 53.9525 46.0872 53.9596C44.9642 54.9506 43.7627 55.8352 42.4828 56.6131C41.2028 57.3914 39.8645 58.0508 38.4675 58.5916ZM49.9722 49.8356C49.1072 50.9416 48.1708 51.9832 47.163 52.9607C46.8814 52.8048 46.5806 52.7096 46.2604 52.6753C46.2335 52.5862 46.2025 52.4986 46.1672 52.4125C46.1319 52.3264 46.0923 52.2422 46.0489 52.1599C46.0055 52.0776 45.958 51.9976 45.9067 51.9199C45.8554 51.8422 45.8006 51.7673 45.7422 51.695C45.6835 51.6226 45.6216 51.5533 45.5563 51.4868C45.4911 51.4205 45.4228 51.3575 45.3514 51.2976C45.2801 51.238 45.2059 51.1818 45.1292 51.1293C45.0523 51.0767 44.9731 51.028 44.8916 50.9833C44.8101 50.9383 44.7265 50.8975 44.641 50.8606C44.5557 50.8238 44.4686 50.7913 44.3797 50.7631C44.2911 50.7347 44.2015 50.7108 44.1103 50.691C44.0194 50.6715 43.9278 50.6563 43.8353 50.6456C43.7427 50.6349 43.65 50.6286 43.5571 50.6271C43.4639 50.6253 43.3709 50.6281 43.2783 50.6352C43.1853 50.6425 43.0932 50.6542 43.0015 50.6705C42.9098 50.6867 42.8192 50.7073 42.7296 50.7324C42.5569 50.5791 42.3733 50.4407 42.1783 50.317C41.9836 50.1934 41.78 50.086 41.5677 49.9951C41.3557 49.9039 41.1376 49.8305 40.9136 49.7747C40.6897 49.7188 40.4627 49.681 40.2327 49.6617C40.2052 49.6617 40.1814 49.6617 40.1542 49.6617V42.5957C42.3033 43.7325 44.0672 43.9811 45.5258 43.3554C45.7645 43.233 45.9935 43.0949 46.2132 42.9405C46.4325 42.7864 46.6402 42.6176 46.8363 42.4343C47.032 42.2512 47.2143 42.0552 47.3832 41.8467C47.5518 41.638 47.7051 41.4186 47.8432 41.1888C48.0141 40.9321 48.1957 40.6833 48.3874 40.4419C48.5793 40.2004 48.7807 39.9676 48.9922 39.7429C49.2034 39.5184 49.4236 39.3031 49.6528 39.0969C49.8821 38.8907 50.1198 38.6945 50.3653 38.5084C50.6111 38.322 50.864 38.1463 51.1245 37.981C51.3847 37.816 51.6516 37.6618 51.9248 37.5191C52.198 37.3762 52.4768 37.2449 52.7609 37.1253C53.045 37.0057 53.3337 36.8981 53.627 36.8026C53.6536 36.794 53.6795 36.7838 53.7049 36.7716C53.7301 36.7597 53.7544 36.746 53.778 36.7308C53.8017 36.7158 53.824 36.699 53.8453 36.681C53.8667 36.6627 53.887 36.6434 53.9058 36.6226C53.9246 36.602 53.9421 36.5802 53.9581 36.5571C53.9741 36.5342 53.9885 36.5104 54.0015 36.4855C54.0144 36.4606 54.0259 36.4352 54.0355 36.4088C54.0452 36.3824 54.053 36.3557 54.0591 36.3283C54.0652 36.3012 54.0695 36.2735 54.0723 36.2455C54.0749 36.2176 54.0756 36.1897 54.0746 36.1618C54.0736 36.1338 54.0705 36.1059 54.066 36.0782C54.0614 36.0508 54.0551 36.0236 54.0469 35.9967C54.0388 35.9698 54.0289 35.9437 54.0172 35.9183C54.0058 35.8926 53.9926 35.868 53.9779 35.8444C53.9631 35.8205 53.9469 35.7977 53.9294 35.7761C53.9116 35.7542 53.8926 35.7337 53.8722 35.7144C53.7067 35.5582 49.7671 31.8964 44.6575 33.2771C44.2137 33.4008 43.781 33.5559 43.3598 33.7428C42.9388 33.9297 42.5333 34.1463 42.1438 34.3925C41.7543 34.6386 41.3846 34.9118 41.035 35.2121C40.6854 35.5123 40.3596 35.8365 40.0575 36.1844C39.9087 35.7796 39.7261 35.3906 39.5103 35.0174C39.2945 34.6439 39.0484 34.292 38.7719 33.9609C38.4954 33.6301 38.1928 33.3251 37.864 33.0463C37.5349 32.7675 37.1845 32.519 36.8128 32.3006C33.7824 30.5933 29.711 31.333 26.913 34.1005C26.882 34.131 26.8546 34.1643 26.8305 34.2003C26.8063 34.2364 26.786 34.2745 26.7695 34.3146C26.753 34.3545 26.7406 34.3958 26.7325 34.4385C26.7241 34.4809 26.7203 34.5238 26.7205 34.5672C26.721 34.6106 26.7256 34.6536 26.7345 34.696C26.7434 34.7384 26.7566 34.7792 26.7738 34.8191C26.7909 34.859 26.8119 34.8965 26.8366 34.9321C26.8614 34.9679 26.8894 35.0006 26.9206 35.0306C28.4214 36.4644 29.838 37.9774 31.1705 39.5692C31.3807 39.8208 31.5651 40.0468 31.7319 40.2499C32.015 40.6734 32.3448 41.0571 32.7213 41.4006C33.0979 41.7439 33.5097 42.0374 33.9576 42.2809C34.4108 42.4952 34.8821 42.6567 35.3716 42.7659C35.8609 42.8748 36.3563 42.9284 36.8575 42.9266C37.5451 42.9312 38.2116 42.8149 38.857 42.5782V49.8168C38.4769 49.9308 38.1163 50.09 37.7761 50.2939C37.4356 50.4978 37.1254 50.7405 36.8453 51.0219C36.646 50.9731 36.4444 50.9386 36.2402 50.9183C36.0363 50.898 35.8317 50.8919 35.6268 50.9003C35.4219 50.9086 35.2185 50.9312 35.0169 50.9681C34.8151 51.0049 34.617 51.0556 34.4223 51.1204C34.2278 51.1851 34.0386 51.2631 33.855 51.3545C33.6712 51.4456 33.495 51.5492 33.3259 51.6653C33.1568 51.7813 32.9966 51.9085 32.8453 52.0472C32.6942 52.1855 32.5533 52.3341 32.4228 52.4922C32.1841 52.4171 31.9403 52.3648 31.6918 52.3358C31.4432 52.3066 31.1941 52.3013 30.9443 52.3196C30.6947 52.3379 30.4489 52.3793 30.2072 52.4443C29.9655 52.509 29.7319 52.5961 29.5066 52.705C28.3501 51.5566 27.2933 50.3226 26.3371 49.0026C25.3807 47.6828 24.5369 46.2944 23.8059 44.8377C23.2583 43.7348 22.7728 42.6054 22.3495 41.4491C21.9263 40.2928 21.5678 39.1167 21.2737 37.9211C20.98 36.7252 20.7527 35.5171 20.592 34.2963C20.4313 33.0755 20.3378 31.8497 20.3122 30.6185C20.3122 30.5537 20.3063 30.4842 20.3036 30.4181C20.4176 30.4082 20.5313 30.3961 20.6446 30.3813C20.758 30.3666 20.871 30.3496 20.9835 30.3298C21.0963 30.3102 21.2085 30.2881 21.3199 30.2635C21.4317 30.2389 21.5429 30.212 21.6533 30.1825C21.7638 30.1531 21.8735 30.1213 21.9826 30.0871C22.0916 30.0528 22.2 30.0162 22.3074 29.9771C22.415 29.9383 22.5214 29.8969 22.6271 29.8532C22.7329 29.8098 22.8375 29.7638 22.9411 29.7156C23.0447 29.6673 23.1473 29.6168 23.2489 29.564C23.3502 29.5114 23.4505 29.4563 23.5495 29.3995C23.6485 29.3423 23.7463 29.2829 23.8428 29.2217C23.9392 29.1603 24.0345 29.0968 24.1279 29.0313C24.2216 28.9655 24.3138 28.898 24.4046 28.8284C24.4953 28.7589 24.5844 28.6873 24.672 28.6139C24.7596 28.5405 24.8454 28.4651 24.9297 28.3877C25.014 28.3105 25.0965 28.2315 25.1775 28.1505C25.2583 28.0698 25.3372 27.9872 25.4144 27.9027C25.4916 27.8184 25.567 27.7326 25.6404 27.645C25.7138 27.5571 25.7854 27.468 25.855 27.3774C25.9243 27.2865 25.9918 27.1943 26.0573 27.1006C26.1228 27.0069 26.1863 26.9117 26.2475 26.8152C26.3089 26.7187 26.3681 26.621 26.4252 26.522C26.4821 26.4229 26.537 26.3226 26.5898 26.2211C26.6423 26.1195 26.6929 26.0169 26.7408 25.9133C26.7891 25.8097 26.835 25.7049 26.8785 25.5993C26.9221 25.4936 26.9633 25.387 27.0024 25.2793C27.0412 25.1719 27.0778 25.0635 27.1118 24.9546C27.1461 24.8454 27.1778 24.7357 27.2073 24.625C27.2365 24.5146 27.2634 24.4036 27.288 24.2919C27.3124 24.1802 27.3345 24.0679 27.354 23.9555C27.3736 23.8427 27.3908 23.7297 27.4053 23.6163C27.42 23.503 27.4322 23.3893 27.4419 23.2753H49.4939C49.5035 23.3893 49.5157 23.503 49.5305 23.6163C49.5449 23.7297 49.5622 23.8427 49.5817 23.9555C49.6013 24.0679 49.6234 24.1802 49.6478 24.2919C49.6721 24.4036 49.6993 24.5146 49.7285 24.6253C49.758 24.7357 49.7897 24.8454 49.8237 24.9546C49.858 25.0638 49.8946 25.1719 49.9334 25.2796C49.9722 25.387 50.0136 25.4936 50.0571 25.5993C50.1007 25.7049 50.1464 25.8097 50.1947 25.9133C50.2429 26.0172 50.2932 26.1198 50.346 26.2211C50.3986 26.3226 50.4534 26.4229 50.5105 26.522C50.5674 26.6212 50.6266 26.719 50.688 26.8155C50.7492 26.912 50.8127 27.0069 50.8782 27.1006C50.9437 27.1943 51.0112 27.2867 51.0808 27.3774C51.1504 27.4683 51.2217 27.5574 51.2951 27.645C51.3687 27.7326 51.4439 27.8187 51.5211 27.9029C51.5983 27.9872 51.6772 28.0698 51.7582 28.1508C51.839 28.2315 51.9215 28.3107 52.0058 28.3879C52.0901 28.4651 52.1762 28.5405 52.2635 28.6141C52.3511 28.6875 52.4402 28.7591 52.5311 28.8287C52.6218 28.8983 52.7139 28.9658 52.8076 29.0313C52.9013 29.0968 52.9963 29.1603 53.0928 29.2217C53.1892 29.2832 53.287 29.3423 53.386 29.3995C53.485 29.4566 53.5853 29.5114 53.6869 29.5643C53.7882 29.6168 53.8908 29.6673 53.9946 29.7156C54.0982 29.7638 54.2028 29.8098 54.3085 29.8535C54.4141 29.8971 54.5207 29.9383 54.6284 29.9774C54.7358 30.0162 54.8439 30.053 54.9531 30.0871C55.0623 30.1213 55.172 30.1533 55.2824 30.1825C55.3929 30.212 55.5041 30.2391 55.6156 30.2635C55.7273 30.2881 55.8395 30.3102 55.952 30.3298C56.0647 30.3496 56.1777 30.3666 56.2912 30.3813C56.4045 30.3961 56.5182 30.4082 56.632 30.4181C56.6241 31.2888 56.5812 32.1577 56.5032 33.0247C56.4255 33.8921 56.313 34.7546 56.1658 35.6128C56.0188 36.471 55.8375 37.3219 55.6219 38.1656C55.4063 39.0091 55.1575 39.8426 54.8749 40.6663C54.5926 41.4897 54.2775 42.3007 53.9299 43.099C53.5823 43.8973 53.2032 44.6803 52.7926 45.4481C52.3821 46.2159 51.9413 46.9662 51.4706 47.6985C50.9998 48.431 50.5004 49.1432 49.9722 49.8356ZM40.563 41.2335C40.7082 40.9827 40.8067 40.7148 40.8588 40.4294C41.2381 40.1471 41.6324 39.8878 42.042 39.6512C42.4515 39.4148 42.8735 39.203 43.3077 39.0159C43.7422 38.8288 44.1857 38.6676 44.6387 38.5322C45.0919 38.3966 45.5512 38.2882 46.0172 38.2065C46.059 38.1991 46.0999 38.1879 46.1398 38.1724C46.1794 38.1572 46.2175 38.1382 46.2533 38.1156C46.2893 38.0927 46.3229 38.0666 46.3538 38.0374C46.3846 38.0079 46.4125 37.9759 46.4369 37.9411C46.4615 37.9061 46.4826 37.8693 46.4998 37.8304C46.5171 37.7916 46.5305 37.7512 46.5397 37.7096C46.5491 37.6682 46.5544 37.626 46.5554 37.5834C46.5567 37.5407 46.5534 37.4986 46.5463 37.4564C46.5389 37.4145 46.5278 37.3737 46.5125 37.3338C46.4973 37.2942 46.4782 37.2561 46.4554 37.2203C46.4325 37.1842 46.4066 37.1507 46.3772 37.1197C46.3477 37.089 46.3157 37.0611 46.281 37.0367C46.2462 37.0121 46.2094 36.991 46.1703 36.9738C46.1314 36.9565 46.091 36.9433 46.0497 36.9339C46.008 36.9245 45.9659 36.9192 45.9232 36.9181C45.8808 36.9169 45.8384 36.9202 45.7965 36.9273C44.9083 37.0832 44.0448 37.3259 43.2054 37.6552C42.366 37.9846 41.568 38.3941 40.8108 38.8839C40.7841 38.7351 40.7557 38.5873 40.7265 38.4401C40.6719 38.1674 40.6051 37.9112 40.5384 37.6535C40.8093 37.2777 41.1094 36.927 41.4395 36.6018C41.7693 36.2763 42.1238 35.9807 42.5033 35.7151C42.8829 35.4493 43.2818 35.2172 43.7005 35.0184C44.1189 34.8199 44.5511 34.6576 44.997 34.5314C48.1261 33.688 50.8099 35.0895 52.1221 35.9909C51.32 36.3428 50.5618 36.7722 49.8476 37.2789C49.2519 37.7106 48.6979 38.1905 48.1858 38.7186C47.6736 39.2467 47.211 39.815 46.7977 40.4236C46.5859 40.7905 46.3287 41.1218 46.0255 41.4179C45.7226 41.7139 45.3854 41.9635 45.014 42.1666C43.9016 42.6425 42.3876 42.3502 40.5122 41.3107C40.5272 41.2803 40.5485 41.2602 40.5643 41.2335H40.563ZM33.5605 36.6386C34.34 36.6427 35.1068 36.7442 35.8609 36.9428C36.5266 37.121 37.165 37.3698 37.7756 37.689C38.3865 38.0084 38.955 38.3905 39.4811 38.8359C39.5309 38.9763 39.5672 39.12 39.5908 39.2673C39.6141 39.4143 39.6243 39.5623 39.6207 39.7114C39.6174 39.8602 39.6004 40.0077 39.5702 40.1534C39.54 40.2994 39.4968 40.4413 39.441 40.5795C38.7811 41.7111 36.3009 41.9805 34.5254 41.1129C33.8383 40.7773 33.5151 40.3814 32.7343 39.4257C32.5657 39.2185 32.3781 38.9903 32.1653 38.7346C30.9757 37.3109 29.6818 35.9117 28.3133 34.571C30.6637 32.5789 33.8121 32.0988 36.1737 33.4277C36.4957 33.6204 36.7981 33.84 37.0812 34.0863C37.364 34.3329 37.6233 34.602 37.8584 34.8945C38.0938 35.1868 38.3014 35.4975 38.4815 35.8266C38.6617 36.1559 38.8115 36.4982 38.9309 36.8539C38.5289 36.6099 38.1123 36.3941 37.6812 36.2064C37.25 36.0186 36.8082 35.8609 36.3558 35.7329C35.9033 35.6049 35.4442 35.5079 34.9786 35.4422C34.5129 35.3762 34.045 35.3419 33.5747 35.3394C33.5318 35.3376 33.4892 35.3404 33.4468 35.3472C33.4044 35.3543 33.3632 35.3655 33.3231 35.3807C33.283 35.3962 33.2449 35.4155 33.2088 35.4386C33.1725 35.4617 33.1393 35.4884 33.1086 35.5184C33.0778 35.5483 33.0504 35.5811 33.0263 35.6166C33.0022 35.6522 32.9821 35.6897 32.9656 35.7294C32.9494 35.7692 32.9372 35.8101 32.929 35.8522C32.9209 35.8944 32.9174 35.9371 32.9181 35.98C32.9174 36.0226 32.9209 36.065 32.9285 36.1072C32.9364 36.1491 32.9481 36.1899 32.9641 36.2298C32.9798 36.2694 32.9994 36.3072 33.0227 36.343C33.0458 36.3788 33.0725 36.4121 33.1022 36.4428C33.1322 36.4733 33.1647 36.5007 33.2 36.5248C33.2353 36.5492 33.2726 36.5695 33.3119 36.5863C33.351 36.6033 33.3917 36.616 33.4336 36.6246C33.4755 36.6335 33.5176 36.6381 33.5605 36.6386Z" fill="white"/>
</g>
</svg>
