<svg width="49" height="49" viewBox="0 0 49 49" fill="none" xmlns="http://www.w3.org/2000/svg">
<g clip-path="url(#clip0_1_372)">
<path d="M12.7328 36.8266C12.9237 36.8902 13.1002 36.9909 13.2522 37.1228C13.4041 37.2547 13.5286 37.4152 13.6185 37.5953C13.7084 37.7753 13.7619 37.9713 13.776 38.172C13.79 38.3728 13.7644 38.5743 13.7006 38.7651L12.1693 43.3589C12.0299 43.7296 11.7523 44.0318 11.3947 44.2022C11.0372 44.3726 10.6276 44.3978 10.2518 44.2725C9.87611 44.1473 9.56353 43.8814 9.37971 43.5305C9.1959 43.1797 9.15517 42.7713 9.26606 42.3911L10.7973 37.7974C10.9253 37.412 11.2011 37.0932 11.564 36.9112C11.927 36.7291 12.3474 36.6987 12.7328 36.8266ZM21.9203 36.8266C22.1112 36.8902 22.2877 36.9909 22.4397 37.1228C22.5916 37.2547 22.7161 37.4152 22.806 37.5953C22.8959 37.7753 22.9494 37.9713 22.9635 38.172C22.9775 38.3728 22.9519 38.5743 22.8881 38.7651L19.8256 47.9526C19.6862 48.3233 19.4085 48.6256 19.051 48.796C18.6935 48.9663 18.2838 48.9915 17.9081 48.8663C17.5324 48.7411 17.2198 48.4751 17.036 48.1243C16.8522 47.7735 16.8114 47.3651 16.9223 46.9849L19.9848 37.7974C20.1128 37.412 20.3886 37.0932 20.7515 36.9112C21.1145 36.7291 21.5349 36.6987 21.9203 36.8266ZM31.1078 36.8266C31.2987 36.8902 31.4752 36.9909 31.6272 37.1228C31.7791 37.2547 31.9036 37.4152 31.9935 37.5953C32.0834 37.7753 32.1369 37.9713 32.151 38.172C32.165 38.3728 32.1394 38.5743 32.0756 38.7651L30.5443 43.3589C30.4049 43.7296 30.1273 44.0318 29.7697 44.2022C29.4122 44.3726 29.0026 44.3978 28.6268 44.2725C28.2511 44.1473 27.9385 43.8814 27.7547 43.5305C27.5709 43.1797 27.5302 42.7713 27.6411 42.3911L29.1723 37.7974C29.3003 37.412 29.5761 37.0932 29.939 36.9112C30.302 36.7291 30.7224 36.6987 31.1078 36.8266ZM40.2953 36.8266C40.4862 36.8902 40.6627 36.9909 40.8147 37.1228C40.9666 37.2547 41.0911 37.4152 41.181 37.5953C41.2709 37.7753 41.3244 37.9713 41.3385 38.172C41.3525 38.3728 41.3269 38.5743 41.2631 38.7651L38.2006 47.9526C38.1429 48.1504 38.0459 48.3344 37.9154 48.4938C37.785 48.6532 37.6237 48.7846 37.4412 48.8802C37.2588 48.9758 37.0589 49.0336 36.8536 49.0502C36.6483 49.0667 36.4417 49.0417 36.2463 48.9765C36.0509 48.9114 35.8707 48.8075 35.7164 48.6711C35.562 48.5347 35.4368 48.3685 35.3482 48.1826C35.2596 47.9966 35.2094 47.7947 35.2007 47.5889C35.1919 47.3831 35.2248 47.1777 35.2973 46.9849L38.3598 37.7974C38.4878 37.412 38.7636 37.0932 39.1265 36.9112C39.4895 36.7291 39.9099 36.6987 40.2953 36.8266ZM41.0518 15.3952C40.4158 12.1892 38.7709 9.27083 36.3575 7.06665C33.9442 4.86248 30.8891 3.48814 27.6387 3.1446C24.3884 2.80106 21.1135 3.50632 18.2927 5.15728C15.4719 6.80823 13.2532 9.31829 11.9611 12.3204C10.512 12.1535 9.04412 12.2841 7.64728 12.7042C6.25044 13.1243 4.95405 13.8251 3.83747 14.7636C2.72089 15.7022 1.80761 16.8588 1.15357 18.1625C0.499521 19.4663 0.118465 20.8899 0.0337278 22.3461C-0.0510091 23.8023 0.162357 25.2604 0.660762 26.6313C1.15917 28.0021 1.93212 29.2568 2.93231 30.3185C3.93249 31.3803 5.13885 32.2267 6.47754 32.806C7.81622 33.3853 9.25905 33.6852 10.7177 33.6875H39.8114C42.1423 33.6902 44.3871 32.8068 46.0911 31.2163C47.795 29.6258 48.8307 27.4471 48.9884 25.1215C49.1461 22.796 48.4139 20.4974 46.9403 18.6915C45.4667 16.8855 43.3617 15.7072 41.0518 15.3952ZM26.0302 6.125C29.0436 6.12437 31.9514 7.23445 34.1978 9.24297C36.4442 11.2515 37.8715 14.0175 38.2067 17.0122C38.2483 17.3884 38.4279 17.7359 38.7106 17.9876C38.9934 18.2393 39.3594 18.3773 39.7379 18.375H39.8114C41.4359 18.375 42.9938 19.0203 44.1425 20.169C45.2911 21.3176 45.9364 22.8755 45.9364 24.5C45.9364 26.1245 45.2911 27.6824 44.1425 28.831C42.9938 29.9797 41.4359 30.625 39.8114 30.625H10.7177C9.63379 30.6245 8.56236 30.3938 7.57427 29.9482C6.58618 29.5027 5.70396 28.8524 4.98596 28.0404C4.26796 27.2284 3.73055 26.2733 3.40929 25.2381C3.08802 24.2029 2.99022 23.1113 3.12235 22.0354C3.25447 20.9596 3.61353 19.9241 4.17575 18.9974C4.73797 18.0708 5.49054 17.274 6.38369 16.6599C7.27684 16.0458 8.2902 15.6283 9.35674 15.4351C10.4233 15.2419 11.5187 15.2774 12.5705 15.5391C12.9457 15.6327 13.3425 15.5809 13.6811 15.394C14.0197 15.2071 14.275 14.899 14.3958 14.5316C15.2051 12.0852 16.7649 9.95609 18.8536 8.44693C20.9422 6.93777 23.4534 6.1253 26.0302 6.125Z" fill="white"/>
</g>
<defs>
<clipPath id="clip0_1_372">
<rect width="49" height="49" fill="white"/>
</clipPath>
</defs>
</svg>
