<svg width="50" height="50" viewBox="0 0 50 50" fill="none" xmlns="http://www.w3.org/2000/svg">
<path d="M25.085 3.34202C25.9398 3.34202 26.6327 4.02915 26.6327 4.87677V6.9231C26.6327 7.77072 25.9398 8.45785 25.085 8.45785C24.2303 8.45785 23.5374 7.77072 23.5374 6.9231V4.87677C23.5374 4.02915 24.2303 3.34202 25.085 3.34202Z" fill="white"/>
<path fill-rule="evenodd" clip-rule="evenodd" d="M13.2199 25.3401C13.2199 18.8417 18.5321 13.5737 25.085 13.5737C31.638 13.5737 36.9502 18.8417 36.9502 25.3401C36.9502 31.8385 31.638 37.1065 25.085 37.1065C18.5321 37.1065 13.2199 31.8385 13.2199 25.3401ZM25.085 16.6432C20.2415 16.6432 16.3151 20.5369 16.3151 25.3401C16.3151 30.1433 20.2415 34.037 25.085 34.037C29.9285 34.037 33.8549 30.1433 33.8549 25.3401C33.8549 20.5369 29.9285 16.6432 25.085 16.6432Z" fill="white"/>
<path d="M11.5882 9.78515C10.9838 9.1858 10.0039 9.1858 9.39953 9.78515C8.79514 10.3845 8.79514 11.3563 9.39953 11.9556L10.8586 13.4026C11.463 14.002 12.4429 14.002 13.0473 13.4026C13.6517 12.8032 13.6517 11.8315 13.0473 11.2321L11.5882 9.78515Z" fill="white"/>
<path d="M47.2677 25.3401C47.2677 26.1877 46.5748 26.8748 45.7201 26.8748H43.6566C42.8018 26.8748 42.1089 26.1877 42.1089 25.3401C42.1089 24.4925 42.8018 23.8053 43.6566 23.8053H45.7201C46.5748 23.8053 47.2677 24.4925 47.2677 25.3401Z" fill="white"/>
<path d="M40.7705 11.9556C41.3749 11.3562 41.3749 10.3845 40.7705 9.78514C40.1661 9.18578 39.1862 9.18578 38.5818 9.78514L37.1227 11.2321C36.5183 11.8315 36.5183 12.8032 37.1227 13.4026C37.7271 14.0019 38.707 14.0019 39.3114 13.4026L40.7705 11.9556Z" fill="white"/>
<path d="M25.085 42.2223C25.9398 42.2223 26.6327 42.9095 26.6327 43.7571V45.8034C26.6327 46.651 25.9398 47.3382 25.085 47.3382C24.2303 47.3382 23.5374 46.651 23.5374 45.8034V43.7571C23.5374 42.9095 24.2303 42.2223 25.085 42.2223Z" fill="white"/>
<path d="M39.3115 37.2776C38.7071 36.6783 37.7272 36.6783 37.1228 37.2776C36.5185 37.877 36.5185 38.8487 37.1228 39.4481L38.582 40.8951C39.1863 41.4944 40.1663 41.4944 40.7706 40.8951C41.375 40.2957 41.375 39.324 40.7706 38.7246L39.3115 37.2776Z" fill="white"/>
<path d="M8.06111 25.3401C8.06111 26.1877 7.36821 26.8748 6.51348 26.8748H4.44997C3.59524 26.8748 2.90234 26.1877 2.90234 25.3401C2.90234 24.4925 3.59524 23.8053 4.44997 23.8053H6.51348C7.36821 23.8053 8.06111 24.4925 8.06111 25.3401Z" fill="white"/>
<path d="M13.0472 39.4481C13.6516 38.8487 13.6516 37.877 13.0472 37.2776C12.4428 36.6783 11.4629 36.6783 10.8585 37.2776L9.39939 38.7246C8.79501 39.3239 8.795 40.2957 9.39939 40.8951C10.0038 41.4944 10.9837 41.4944 11.5881 40.8951L13.0472 39.4481Z" fill="white"/>
</svg>
