<svg width="31" height="25" viewBox="0 0 31 25" fill="none" xmlns="http://www.w3.org/2000/svg">
<path d="M30.2841 4.9289C30.1086 4.29038 29.7662 3.70826 29.291 3.24051C28.8159 2.77276 28.2246 2.4357 27.5759 2.26289C25.2013 1.62537 15.6441 1.62537 15.6441 1.62537C15.6441 1.62537 6.08648 1.64466 3.71183 2.28219C3.06318 2.45501 2.47184 2.79209 1.9967 3.25986C1.52155 3.72763 1.17918 4.30978 1.00368 4.94832C0.285407 9.10177 0.00677478 15.4307 1.02341 19.418C1.19892 20.0565 1.5413 20.6386 2.01645 21.1064C2.49159 21.5741 3.08292 21.9112 3.73155 22.084C6.1062 22.7215 15.6636 22.7215 15.6636 22.7215C15.6636 22.7215 25.2209 22.7215 27.5954 22.084C28.2441 21.9112 28.8354 21.5742 29.3106 21.1064C29.7858 20.6386 30.1281 20.0565 30.3037 19.418C31.0613 15.2586 31.2947 8.93374 30.2841 4.92902V4.9289Z" fill="#C20707"/>
<path d="M12.6016 16.694L20.53 12.1734L12.6016 7.65283V16.694Z" fill="white"/>
</svg>
