<svg width="25" height="25" viewBox="0 0 25 25" fill="none" xmlns="http://www.w3.org/2000/svg">
<rect x="0.320312" y="0.199951" width="24.31" height="24.31" rx="12.155" fill="url(#paint0_linear_1_468)"/>
<g clip-path="url(#clip0_1_468)" filter="url(#filter0_i_1_468)">
<path d="M9.22979 17.6936C9.22979 17.4731 9.22979 17.2527 9.22979 17.0322C9.23136 17.0232 9.23104 17.0139 9.22886 17.005C9.22668 16.9961 9.22268 16.9878 9.21711 16.9805C9.21154 16.9732 9.20452 16.9671 9.19648 16.9626C9.18845 16.9581 9.17956 16.9553 9.17038 16.9543C8.61885 16.7991 8.10979 16.5225 7.68114 16.1452C7.36882 15.8637 7.10878 15.5301 6.91285 15.1595C6.63669 14.6242 6.4529 14.0469 6.36911 13.4515C6.26528 12.7046 6.22923 11.95 6.26137 11.1967C6.26841 10.8455 6.28654 10.4983 6.32682 10.1472C6.39105 9.4798 6.56095 8.82663 6.83028 8.21165C7.16285 7.45551 7.76617 6.84812 8.52393 6.50661C9.04012 6.27256 9.58316 6.1017 10.1411 5.99779C10.6882 5.89511 11.2421 5.83209 11.7985 5.80923C12.3 5.79166 12.802 5.79898 13.3028 5.83118C14.0195 5.86115 14.7298 5.97877 15.4174 6.18137C15.9272 6.32697 16.4122 6.54723 16.8563 6.83485C17.289 7.12918 17.639 7.52779 17.8733 7.99316C18.1487 8.53668 18.3359 9.11984 18.4281 9.72115C18.4879 10.0781 18.5273 10.4382 18.5459 10.7996C18.5721 11.2476 18.569 11.6976 18.5519 12.1435C18.5348 12.5895 18.4966 13.0225 18.4412 13.4595C18.3712 14.1153 18.1677 14.7504 17.8431 15.3261C17.4205 16.0545 16.7436 16.6045 15.94 16.8725C15.3905 17.0632 14.8231 17.1989 14.2463 17.2776C13.8244 17.3355 13.4015 17.3774 12.9766 17.3943C12.6513 17.4093 12.3261 17.4053 12.0009 17.4003C11.8166 17.4003 11.6333 17.3824 11.4501 17.3664C11.4321 17.363 11.4135 17.365 11.3966 17.3721C11.3798 17.3792 11.3654 17.3911 11.3554 17.4063C10.9849 17.8473 10.6002 18.2763 10.2126 18.7033C10.1419 18.7812 10.0602 18.8484 9.96988 18.9028C9.91061 18.9414 9.84302 18.9655 9.77258 18.9734C9.70214 18.9813 9.63082 18.9726 9.56437 18.9482C9.49792 18.9237 9.43821 18.8841 9.39006 18.8325C9.34191 18.781 9.30667 18.7189 9.28719 18.6514C9.24881 18.5314 9.22978 18.4061 9.2308 18.2803C9.22979 18.0827 9.22979 17.8882 9.22979 17.6936ZM9.67787 18.5307L9.7252 18.4868L10.566 17.5619C10.8895 17.2061 11.2128 16.8499 11.5357 16.4934C11.5515 16.4717 11.5729 16.4545 11.5977 16.4436C11.6225 16.4328 11.6497 16.4286 11.6766 16.4316C11.7864 16.4425 11.8961 16.4465 12.0069 16.4475C12.3895 16.4475 12.7722 16.4475 13.1548 16.4206C13.5022 16.3937 13.8486 16.3517 14.1929 16.2979C14.5637 16.2339 14.9308 16.1503 15.2925 16.0475C16.098 15.833 16.7213 15.374 17.113 14.6307C17.3443 14.1738 17.4893 13.6788 17.541 13.1701C17.6022 12.6907 17.6388 12.2086 17.6507 11.7255C17.6686 11.1186 17.6268 10.5115 17.5259 9.9127C17.4559 9.47885 17.33 9.0557 17.1513 8.65362C16.9237 8.15478 16.6015 7.74174 16.1051 7.47636C15.3439 7.0693 14.5202 6.88772 13.6714 6.79494C13.4307 6.769 13.19 6.75503 12.9484 6.74605C12.4536 6.72078 11.9577 6.72344 11.4632 6.75404C11.1075 6.78019 10.7538 6.8275 10.4039 6.89571C9.88928 6.98865 9.39147 7.15676 8.92671 7.39455C8.65726 7.52944 8.41282 7.70856 8.20373 7.92432C7.86487 8.29958 7.6163 8.7461 7.47673 9.23029C7.31115 9.79418 7.22077 10.3771 7.20788 10.9643C7.17548 11.5514 7.18288 12.14 7.23003 12.7262C7.25937 13.075 7.31831 13.4207 7.40624 13.7598C7.53707 14.2881 7.79087 14.7787 8.14734 15.1924C8.53219 15.6145 9.0296 15.9203 9.58222 16.0744C9.65169 16.0953 9.68291 16.1193 9.68291 16.1971C9.67687 16.4844 9.68291 16.7718 9.68291 17.0591L9.67787 18.5307Z" fill="white"/>
<path d="M8.97459 9.61954C8.96754 9.40105 9.08737 9.24242 9.23237 9.09975C9.4236 8.91824 9.6343 8.75799 9.86069 8.62186C9.96392 8.55878 10.0867 8.53474 10.2064 8.55417C10.3261 8.5736 10.4347 8.63519 10.5122 8.72761C10.7861 9.0129 11.0313 9.32399 11.2442 9.65646C11.3497 9.80601 11.4293 9.97189 11.4798 10.1473C11.5 10.2158 11.5013 10.2883 11.4836 10.3575C11.4659 10.4266 11.4298 10.4898 11.3791 10.5404C11.263 10.6534 11.1392 10.7584 11.0086 10.8547C10.9428 10.9066 10.8939 10.9766 10.8679 11.0559C10.8419 11.1352 10.8401 11.2203 10.8626 11.3006C10.9432 11.6778 11.126 12.0262 11.3912 12.3083C11.7135 12.6982 12.1288 13.0023 12.5995 13.1932C12.7152 13.2522 12.8477 13.2701 12.9751 13.2441C13.0449 13.2253 13.1069 13.1851 13.1523 13.1294C13.2228 13.0406 13.2993 12.9548 13.3628 12.86C13.4451 12.7418 13.5707 12.6601 13.7129 12.6323C13.8551 12.6045 14.0026 12.6329 14.124 12.7114C14.4653 12.9076 14.7876 13.1347 15.0866 13.3898C15.1571 13.4496 15.2306 13.5075 15.3011 13.5684C15.3845 13.6314 15.4448 13.7198 15.4726 13.82C15.5004 13.9202 15.4943 14.0267 15.4552 14.1231C15.393 14.2852 15.3023 14.4352 15.1873 14.5661C15.0445 14.7628 14.8625 14.9285 14.6527 15.0529C14.5523 15.1113 14.4396 15.1456 14.3235 15.153C14.2074 15.1605 14.0911 15.1409 13.9841 15.0958C13.1694 14.7708 12.4082 14.3273 11.7255 13.7799C11.0578 13.2353 10.4743 12.5966 9.9936 11.8843C9.58911 11.2946 9.26731 10.6532 9.03702 9.97771C9.0125 9.89601 8.99233 9.81309 8.97661 9.72929C8.97213 9.69287 8.97146 9.6561 8.97459 9.61954Z" fill="white"/>
<path d="M12.4505 8.55794C13.1321 8.57042 13.7877 8.81954 14.3029 9.26185C14.8182 9.70417 15.1604 10.3116 15.2699 10.9783C15.314 11.2207 15.3376 11.4663 15.3404 11.7126C15.3404 11.7705 15.3253 11.8124 15.2629 11.8184C15.2004 11.8244 15.1843 11.7715 15.1843 11.7186C15.1937 11.2204 15.0905 10.7265 14.8822 10.273C14.7069 9.90029 14.4471 9.57273 14.1232 9.31576C13.7992 9.0588 13.4198 8.87935 13.0144 8.79139C12.8001 8.74223 12.5809 8.7168 12.3609 8.71557C12.3395 8.71594 12.3181 8.71325 12.2975 8.70759C12.2799 8.70268 12.2649 8.69119 12.2557 8.67556C12.2465 8.65993 12.2438 8.64136 12.2481 8.62378C12.2482 8.61544 12.25 8.60721 12.2534 8.59957C12.2568 8.59193 12.2617 8.58502 12.2678 8.57927C12.2738 8.57351 12.281 8.56901 12.2889 8.56603C12.2968 8.56306 12.3051 8.56166 12.3136 8.56193C12.3589 8.55594 12.4052 8.55794 12.4505 8.55794Z" fill="white"/>
<path d="M14.3923 11.2636C14.3889 10.9864 14.32 10.7139 14.1911 10.4679C14.0623 10.2218 13.877 10.0091 13.6502 9.84687C13.3855 9.66263 13.0777 9.54829 12.756 9.51464C12.7016 9.50766 12.6473 9.50467 12.5919 9.49868C12.5365 9.4927 12.5033 9.46975 12.5083 9.41388C12.5133 9.35801 12.5486 9.33805 12.609 9.34204C13.5011 9.39592 14.2604 9.89576 14.494 10.8266C14.5367 11.0061 14.558 11.1899 14.5574 11.3743C14.5574 11.3913 14.5574 11.4082 14.5574 11.4242C14.5574 11.4741 14.5252 11.507 14.4759 11.506C14.4649 11.5057 14.4542 11.5031 14.4443 11.4985C14.4343 11.4938 14.4255 11.4873 14.4182 11.4791C14.411 11.471 14.4055 11.4615 14.402 11.4512C14.3986 11.4409 14.3974 11.43 14.3983 11.4192C14.3903 11.3723 14.3923 11.3244 14.3923 11.2636Z" fill="white"/>
<path d="M12.8302 10.1521C13.3196 10.185 13.6609 10.4225 13.7546 10.9383C13.7659 11.0043 13.774 11.0709 13.7787 11.1378C13.7787 11.1917 13.7666 11.2376 13.7072 11.2376C13.6478 11.2376 13.6277 11.1977 13.6257 11.1378C13.6251 10.9401 13.5636 10.7472 13.4495 10.5851C13.3295 10.4382 13.1572 10.3425 12.9681 10.3177C12.9259 10.3099 12.8832 10.3045 12.8403 10.3017C12.7698 10.3017 12.7305 10.2668 12.7396 10.2129C12.7486 10.1591 12.7909 10.1491 12.8302 10.1521Z" fill="white"/>
</g>
<defs>
<filter id="filter0_i_1_468" x="5.92188" y="5.79993" width="13.1758" height="13.6763" filterUnits="userSpaceOnUse" color-interpolation-filters="sRGB">
<feFlood flood-opacity="0" result="BackgroundImageFix"/>
<feBlend mode="normal" in="SourceGraphic" in2="BackgroundImageFix" result="shape"/>
<feColorMatrix in="SourceAlpha" type="matrix" values="0 0 0 0 0 0 0 0 0 0 0 0 0 0 0 0 0 0 127 0" result="hardAlpha"/>
<feOffset dy="0.5"/>
<feGaussianBlur stdDeviation="1.25"/>
<feComposite in2="hardAlpha" operator="arithmetic" k2="-1" k3="1"/>
<feColorMatrix type="matrix" values="0 0 0 0 0 0 0 0 0 0 0 0 0 0 0 0 0 0 0.1 0"/>
<feBlend mode="normal" in2="shape" result="effect1_innerShadow_1_468"/>
</filter>
<linearGradient id="paint0_linear_1_468" x1="2.46146" y1="2.01169" x2="22.72" y2="23.9173" gradientUnits="userSpaceOnUse">
<stop stop-color="#754A91"/>
<stop offset="1" stop-color="#54008A"/>
</linearGradient>
<clipPath id="clip0_1_468">
<rect width="13.1763" height="13.1763" fill="white" transform="translate(5.92188 5.79993)"/>
</clipPath>
</defs>
</svg>
