<svg width="25" height="24" viewBox="0 0 25 24" fill="none" xmlns="http://www.w3.org/2000/svg">
<path fill-rule="evenodd" clip-rule="evenodd" d="M7.55301 10C7.55301 7.37665 9.76826 5.25 12.5009 5.25C15.2336 5.25 17.4488 7.37665 17.4488 10C17.4488 12.6234 15.2336 14.75 12.5009 14.75C9.76826 14.75 7.55301 12.6234 7.55301 10ZM12.5009 6.75C10.6312 6.75 9.11551 8.20507 9.11551 10C9.11551 11.7949 10.6312 13.25 12.5009 13.25C14.3706 13.25 15.8863 11.7949 15.8863 10C15.8863 8.20507 14.3706 6.75 12.5009 6.75Z" fill="white"/>
<path fill-rule="evenodd" clip-rule="evenodd" d="M3.67213 8.85685C4.04122 4.55824 7.78305 1.25 12.276 1.25H12.7259C17.2188 1.25 20.9606 4.55824 21.3297 8.85685C21.528 11.166 20.785 13.4589 19.2572 15.2526L14.2644 21.1144C13.353 22.1845 11.6489 22.1845 10.7374 21.1144L5.74463 15.2526C4.21686 13.4589 3.47386 11.166 3.67213 8.85685ZM12.276 2.75C8.59623 2.75 5.53164 5.45948 5.22935 8.98008C5.06434 10.9019 5.68272 12.8102 6.95424 14.3031L11.947 20.1649C12.2333 20.501 12.7685 20.501 13.0548 20.1649L18.0476 14.3031C19.3191 12.8102 19.9375 10.9019 19.7725 8.98008C19.4702 5.45948 16.4056 2.75 12.7259 2.75H12.276Z" fill="white"/>
</svg>
