<svg width="19" height="19" viewBox="0 0 19 19" fill="none" xmlns="http://www.w3.org/2000/svg">
<mask id="mask0_1_2774" style="mask-type:luminance" maskUnits="userSpaceOnUse" x="0" y="0" width="19" height="19">
<path d="M0 0H19V19H0V0Z" fill="white"/>
</mask>
<g mask="url(#mask0_1_2774)">
<path d="M15.5798 0H3.4202C1.53465 0 0 1.53465 0 3.4202V15.5802C0 17.4661 1.53465 19 3.4202 19H15.5798C17.4661 19 19 17.4661 19 15.5802V3.4202C19 1.53465 17.4661 0 15.5798 0ZM15.8489 15.8493C15.7749 15.9233 15.6775 15.9605 15.5805 15.9605C15.4831 15.9605 15.3858 15.9233 15.3118 15.8493L5.70057 6.23773L3.68896 8.24898C3.61637 8.32157 3.51934 8.36052 3.42055 8.36052C3.37133 8.36052 3.32211 8.35096 3.27502 8.33149C3.13267 8.27271 3.04026 8.1339 3.04026 7.98058V3.42055C3.04026 3.21057 3.21057 3.04061 3.42055 3.04061H7.98023C8.1339 3.04061 8.27271 3.13338 8.33149 3.27502C8.39027 3.41701 8.35769 3.5806 8.24898 3.68931L6.23773 5.70057L15.8486 15.3118C15.9976 15.4605 15.9976 15.7005 15.8489 15.8493Z" fill="#015019"/>
<path d="M15.5798 0H3.4202C1.53465 0 0 1.53465 0 3.4202V15.5802C0 17.4661 1.53465 19 3.4202 19H15.5798C17.4661 19 19 17.4661 19 15.5802V3.4202C19 1.53465 17.4661 0 15.5798 0ZM15.8489 15.8493C15.7749 15.9233 15.6775 15.9605 15.5805 15.9605C15.4831 15.9605 15.3858 15.9233 15.3118 15.8493L5.70057 6.23773L3.68896 8.24898C3.61637 8.32157 3.51934 8.36052 3.42055 8.36052C3.37133 8.36052 3.32211 8.35096 3.27502 8.33149C3.13267 8.27271 3.04026 8.1339 3.04026 7.98058V3.42055C3.04026 3.21057 3.21057 3.04061 3.42055 3.04061H7.98023C8.1339 3.04061 8.27271 3.13338 8.33149 3.27502C8.39027 3.41701 8.35769 3.5806 8.24898 3.68931L6.23773 5.70057L15.8486 15.3118C15.9976 15.4605 15.9976 15.7005 15.8489 15.8493Z" fill="#015019"/>
</g>
</svg>
